<?xml version="1.0" standalone="no"?>
<!DOCTYPE svg PUBLIC "-//W3C//DTD SVG 20010904//EN"
 "http://www.w3.org/TR/2001/REC-SVG-20010904/DTD/svg10.dtd">
<svg version="1.0" xmlns="http://www.w3.org/2000/svg"
 width="576.000000pt" height="576.000000pt" viewBox="0 0 576.000000 576.000000"
 preserveAspectRatio="xMidYMid meet">
<metadata>
Created by potrace 1.11, written by Peter Selinger 2001-2013
</metadata>
<g transform="translate(0.000000,576.000000) scale(0.100000,-0.100000)"
fill="#000000" stroke="none">
<path d="M2647 4934 c-1 -1 -44 -4 -95 -8 -52 -3 -97 -8 -100 -10 -4 -2 -36
-7 -70 -10 -141 -15 -390 -66 -572 -117 -98 -28 -339 -109 -385 -129 -11 -5
-65 -28 -120 -51 -261 -108 -574 -285 -830 -468 -108 -77 -266 -199 -280 -216
-7 -8 -10 -374 -10 -1055 l0 -1043 130 -93 c125 -90 340 -229 455 -293 71 -40
352 -180 410 -205 316 -131 660 -237 915 -280 283 -48 472 -63 750 -60 127 1
250 5 275 8 25 3 74 8 110 11 36 3 112 12 170 21 697 103 1375 397 1983 857
l117 89 0 1072 0 1072 -27 20 c-553 406 -1150 677 -1780 809 -70 14 -97 19
-165 30 -18 3 -58 10 -88 15 -78 13 -135 18 -295 26 -125 5 -494 11 -498 8z"/>
</g>
</svg>
