<?xml version="1.0" encoding="UTF-8" standalone="no"?>
<!-- Created with Inkscape (http://www.inkscape.org/) -->

<svg
   xmlns:dc="http://purl.org/dc/elements/1.1/"
   xmlns:cc="http://creativecommons.org/ns#"
   xmlns:rdf="http://www.w3.org/1999/02/22-rdf-syntax-ns#"
   xmlns:svg="http://www.w3.org/2000/svg"
   xmlns="http://www.w3.org/2000/svg"
   xmlns:sodipodi="http://sodipodi.sourceforge.net/DTD/sodipodi-0.dtd"
   xmlns:inkscape="http://www.inkscape.org/namespaces/inkscape"
   width="164.97519"
   height="28.98613"
   viewBox="0 0 43.649684 7.669247"
   version="1.1"
   id="svg6054"
   inkscape:version="0.92.0 r15299"
   sodipodi:docname="dxc technology.svg">
  <defs
     id="defs6048">
    <clipPath
       id="clipPath5885"
       clipPathUnits="userSpaceOnUse">
      <path
         inkscape:connector-curvature="0"
         id="path5883"
         d="m 612.1815,138.1259 h 142.45 V 97.67774 h -142.45 z" />
    </clipPath>
    <clipPath
       id="clipPath5891"
       clipPathUnits="userSpaceOnUse">
      <path
         inkscape:connector-curvature="0"
         id="path5889"
         d="m 612.1815,138.1259 h 142.45 V 97.67774 h -142.45 z" />
    </clipPath>
    <clipPath
       id="clipPath5897"
       clipPathUnits="userSpaceOnUse">
      <path
         inkscape:connector-curvature="0"
         id="path5895"
         d="M 11,90 H 781 V 523 H 11 Z" />
    </clipPath>
  </defs>
  <sodipodi:namedview
     id="base"
     pagecolor="#ffffff"
     bordercolor="#666666"
     borderopacity="1.0"
     inkscape:pageopacity="0.0"
     inkscape:pageshadow="2"
     inkscape:zoom="4.8909836"
     inkscape:cx="81.987598"
     inkscape:cy="13.993098"
     inkscape:document-units="mm"
     inkscape:current-layer="layer1"
     showgrid="false"
     units="px"
     fit-margin-top="0"
     fit-margin-left="0"
     fit-margin-right="0"
     fit-margin-bottom="0"
     inkscape:window-width="1280"
     inkscape:window-height="744"
     inkscape:window-x="-4"
     inkscape:window-y="-4"
     inkscape:window-maximized="1" />
  <metadata
     id="metadata6051">
    <rdf:RDF>
      <cc:Work
         rdf:about="">
        <dc:format>image/svg+xml</dc:format>
        <dc:type
           rdf:resource="http://purl.org/dc/dcmitype/StillImage" />
        <dc:title></dc:title>
      </cc:Work>
    </rdf:RDF>
  </metadata>
  <g
     inkscape:label="Layer 1"
     inkscape:groupmode="layer"
     id="layer1"
     transform="translate(-81.116969,-187.9557)">
    <g
       id="g5879"
       transform="matrix(0.35277777,0,0,-0.35277777,-138.14881,233.38346)">
      <g
         id="g5881"
         clip-path="url(#clipPath5885)">
        <g
           id="g5887"
           clip-path="url(#clipPath5891)">
          <g
             id="g5893"
             clip-path="url(#clipPath5897)">
            <path
               d="m 642.2286,117.9018 c 0,-3.7836 3.0241,-6.7796 6.7832,-6.7796 h 2.9511 v 13.5751 h -2.9511 c -3.7591,0 -6.7832,-2.9965 -6.7832,-6.7955 m -5.2759,2.2037 4.7774,8.2911 h -9.5815 z m 0,-4.4073 -4.8041,-8.2912 h 9.5815 z m -5.3026,2.2036 c 0,3.799 -3.0241,6.7955 -6.7831,6.7955 h -2.9512 v -13.5751 h 2.9512 c 3.759,0 6.7831,2.996 6.7831,6.7796"
               style="fill:#000000;fill-opacity:1;fill-rule:nonzero;stroke:none"
               id="path5899"
               inkscape:connector-curvature="0" />
            <path
               d="m 659.9224,114.0306 h 2.8458 c 2.5872,0 4.0317,1.8963 4.0317,3.8787 0,1.9823 -1.4553,3.8786 -4.0317,3.8786 h -2.8458 z m 2.7596,6.1843 c 1.4337,0 2.253,-1.1205 2.253,-2.3056 0,-1.1744 -0.8193,-2.3056 -2.253,-2.3056 h -0.9378 v 4.6112 z m 9.2597,-6.1843 h 2.1344 l -2.5117,3.9002 2.4901,3.8571 h -2.0912 l -1.5415,-2.5535 -1.563,2.5535 h -2.1236 l 2.5009,-3.8571 -2.5225,-3.9002 h 2.0805 l 1.5846,2.5858 z m 6.0474,-0.1401 c 2.2314,0 3.4495,1.3361 3.6867,3.0383 h -1.8433 c -0.1726,-0.808 -0.8409,-1.4114 -1.8003,-1.4114 -1.3905,0 -2.1128,1.1098 -2.1128,2.3919 0,1.282 0.7223,2.3918 2.1128,2.3918 0.9594,0 1.6277,-0.6034 1.8003,-1.4114 h 1.8433 c -0.2372,1.7023 -1.4553,3.0383 -3.6867,3.0383 -2.4901,0 -3.9346,-1.8963 -3.9346,-4.0187 0,-2.1225 1.4445,-4.0188 3.9346,-4.0188 m 4.3011,1.1636 c 0,-0.6141 0.4959,-1.1205 1.1204,-1.1205 0.636,0 1.1211,0.5064 1.1211,1.1205 0,0.6141 -0.4851,1.1205 -1.1211,1.1205 -0.6245,0 -1.1204,-0.5064 -1.1204,-1.1205 m 2.3817,4.5467 v -1.3791 h 0.8731 v -2.2625 c 0,-1.5299 0.733,-2.0148 2.0589,-2.0148 0.4851,0 0.8516,0.0431 1.0995,0.0862 v 1.4114 c -0.2155,-0.0323 -0.5389,-0.0647 -0.7006,-0.0647 -0.4528,0 -0.7007,0.1509 -0.7007,0.7111 v 2.1333 h 1.272 v 1.3791 h -1.272 v 1.6484 h -1.7571 v -1.6484 z m 10.2083,-3.8787 h -1.6709 c -0.1832,-0.334 -0.5066,-0.571 -1.0564,-0.571 -0.7976,0 -1.1965,0.5064 -1.2288,1.2067 h 4.0532 c 0.0322,0.2586 0.043,0.4525 0.043,0.6573 0,1.4759 -1.0241,2.7365 -2.8674,2.7365 -1.8972,0 -2.932,-1.3251 -2.932,-2.9413 0,-1.6053 1.0456,-2.9306 2.9536,-2.9306 1.5199,0 2.4255,0.8081 2.7057,1.8424 m -2.7488,2.7797 c 0.6684,0 1.0995,-0.4201 1.1642,-1.0774 h -2.3607 c 0.0647,0.6788 0.5389,1.0774 1.1965,1.0774 m 9.3352,-1.0451 c -0.2156,1.293 -1.175,2.2949 -2.8567,2.2949 -1.8863,0 -3.029,-1.3467 -3.029,-2.9413 0,-1.5837 1.1427,-2.9306 3.029,-2.9306 1.6817,0 2.6411,1.0021 2.8567,2.2949 h -1.7679 c -0.1509,-0.4848 -0.5282,-0.808 -1.078,-0.808 -0.7761,0 -1.2719,0.6572 -1.2719,1.4437 0,0.7865 0.4958,1.4545 1.2719,1.4545 0.5498,0 0.9164,-0.3232 1.0672,-0.8081 z m 0.7869,-3.4261 h 1.7571 v 2.909 c 0,0.7865 0.3665,1.2929 1.0779,1.2929 0.7546,0 0.9918,-0.4633 0.9918,-1.1313 v -3.0706 h 1.757 v 3.1999 c 0,1.573 -0.6899,2.5104 -2.102,2.5104 -0.8192,0 -1.4121,-0.3664 -1.7247,-0.9481 v 3.3183 h -1.7571 z m 6.6942,0 h 1.757 v 2.909 c 0,0.7865 0.3666,1.2929 1.078,1.2929 0.7546,0 0.9917,-0.4633 0.9917,-1.1313 v -3.0706 h 1.7572 v 3.1999 c 0,1.573 -0.69,2.5104 -2.1021,2.5104 -0.83,0 -1.4337,-0.3664 -1.7463,-0.9481 v 0.808 h -1.7355 z m 9.4861,-0.1509 c 1.9403,0 3.0938,1.3469 3.0938,2.9306 0,1.5946 -1.1535,2.9413 -3.0938,2.9413 -1.9188,0 -3.083,-1.3467 -3.083,-2.9413 0,-1.5837 1.1642,-2.9306 3.083,-2.9306 m 0,1.5192 c -0.7977,0 -1.3152,0.6356 -1.3152,1.4114 0,0.7757 0.5175,1.4222 1.3152,1.4222 0.7977,0 1.3259,-0.6465 1.3259,-1.4222 0,-0.7758 -0.5282,-1.4114 -1.3259,-1.4114 m 3.9453,-1.3683 h 1.7571 v 8.0805 h -0.8785 -0.8786 z m 5.6917,-0.1509 c 1.9404,0 3.0938,1.3469 3.0938,2.9306 0,1.5946 -1.1534,2.9413 -3.0938,2.9413 -1.9187,0 -3.083,-1.3467 -3.083,-2.9413 0,-1.5837 1.1643,-2.9306 3.083,-2.9306 m 0,1.5192 c -0.7976,0 -1.3151,0.6356 -1.3151,1.4114 0,0.7757 0.5175,1.4222 1.3151,1.4222 0.7977,0 1.326,-0.6465 1.326,-1.4222 0,-0.7758 -0.5283,-1.4114 -1.326,-1.4114 m 9.8527,-1.4761 v 5.678 h -1.7355 v -0.8188 c -0.3235,0.5925 -1.0457,0.9589 -1.7571,0.9589 -1.6278,0 -2.7058,-1.2607 -2.7058,-2.9306 0,-1.6592 1.1211,-2.8336 2.7272,-2.8336 0.7223,0 1.4122,0.3556 1.7141,0.862 v -0.959 c 0,-0.7972 -0.4204,-1.2389 -1.2613,-1.2389 -0.7438,0 -1.1534,0.3447 -1.2288,0.8512 H 731.93 c 0.0969,-1.2391 1.0779,-2.1225 2.932,-2.1225 2.059,0 3.0615,0.9265 3.0615,2.5533 m -3.1154,1.4761 c -0.7761,0 -1.3151,0.6464 -1.3151,1.4114 0,0.765 0.539,1.4222 1.3151,1.4222 0.8085,0 1.3475,-0.6572 1.3475,-1.4222 0,-0.765 -0.539,-1.4114 -1.3475,-1.4114 m 7.5451,-2.1871 2.544,6.3782 h -1.811 l -1.2827,-3.4261 -1.3906,3.4369 h -1.9188 l 2.3931,-5.5917 -0.1402,-0.3448 c -0.2263,-0.5494 -0.5066,-0.7219 -0.9485,-0.7219 -0.1402,0 -0.3989,0.0324 -0.5822,0.0647 v -1.4761 c 0.2049,-0.0323 0.4528,-0.0538 0.7654,-0.0538 1.3259,0 1.908,0.5603 2.3715,1.7346"
               style="fill:#000000;fill-opacity:1;fill-rule:nonzero;stroke:none"
               id="path5901"
               inkscape:connector-curvature="0" />
          </g>
        </g>
      </g>
    </g>
  </g>
</svg>
