<svg id="Layer_1" data-name="Layer 1" xmlns="http://www.w3.org/2000/svg" viewBox="0 0 463.32 131.63"><defs><style>.cls-1{fill:#fff;}</style></defs><title>DXC_Logo_Footer</title><path class="cls-1" d="M63.32,65.81A22,22,0,0,0,41.26,43.7h-9.6V87.88h9.6A22,22,0,0,0,63.32,65.81M80.57,73,64.94,100H96.11Zm0-14.35,15.54-27H64.94Zm17.16,7.17a22,22,0,0,0,22.06,22.07h9.6V43.7h-9.6A22,22,0,0,0,97.73,65.81M423.39,81.08c-1.51,3.82-3.4,5.64-7.72,5.64a16.75,16.75,0,0,1-2.49-.17V81.74a12.94,12.94,0,0,0,1.9.21c1.43,0,2.35-.56,3.08-2.35l.46-1.12-7.79-18.2h6.25l4.52,11.19,4.17-11.15h5.89l-8.27,20.76M398.85,74a4.62,4.62,0,0,1,0-9.22,4.62,4.62,0,0,1,0,9.22M409,78.76V60.28h-5.65V63a6.57,6.57,0,0,0-5.71-3.12c-5.3,0-8.8,4.1-8.8,9.54s3.64,9.22,8.87,9.22a6.58,6.58,0,0,0,5.57-2.81V78.9c0,2.6-1.36,4-4.1,4-2.42,0-3.75-1.12-4-2.77h-5.68c.32,4,3.51,6.91,9.54,6.91,6.7,0,10-3,10-8.31M376.93,74a4.62,4.62,0,0,1,0-9.22,4.62,4.62,0,0,1,0,9.22m0,4.94c6.31,0,10.07-4.38,10.07-9.53s-3.76-9.58-10.07-9.58-10,4.39-10,9.58,3.78,9.53,10,9.53m-18.51-.49h5.72V52.12h-5.72ZM345.59,74a4.62,4.62,0,0,1,0-9.22,4.62,4.62,0,0,1,0,9.22m0,4.94c6.31,0,10.06-4.38,10.06-9.53s-3.75-9.58-10.06-9.58-10,4.39-10,9.58,3.79,9.53,10,9.53m-30.86-.49h5.72V69c0-2.56,1.19-4.21,3.51-4.21s3.22,1.51,3.22,3.68v10h5.72V68c0-5.12-2.25-8.17-6.84-8.17a6.09,6.09,0,0,0-5.68,3.08V60.28h-5.65Zm-21.77,0h5.72V69c0-2.56,1.19-4.21,3.5-4.21s3.23,1.51,3.23,3.68v10h5.71V68c0-5.12-2.24-8.17-6.83-8.17a6,6,0,0,0-5.61,3.08V52.12H293ZM290.4,67.26c-.7-4.21-3.82-7.47-9.29-7.47-6.14,0-9.85,4.39-9.85,9.58s3.71,9.53,9.85,9.53c5.47,0,8.59-3.26,9.29-7.47h-5.75a3.52,3.52,0,0,1-3.5,2.63c-2.53,0-4.14-2.13-4.14-4.69s1.61-4.74,4.14-4.74a3.48,3.48,0,0,1,3.47,2.63ZM260,63.86a3.61,3.61,0,0,1,3.79,3.51h-7.68A3.67,3.67,0,0,1,260,63.86m8.94,9h-5.43a3.62,3.62,0,0,1-3.44,1.86c-2.6,0-3.89-1.65-4-3.93H269.3a17.24,17.24,0,0,0,.14-2.14c0-4.8-3.34-8.91-9.33-8.91-6.17,0-9.54,4.32-9.54,9.58s3.4,9.53,9.61,9.53c4.94,0,7.89-2.63,8.8-6m-33.2-12.63v4.49h2.84v7.37c0,5,2.38,6.55,6.69,6.55a21,21,0,0,0,3.58-.28V73.82a20.75,20.75,0,0,1-2.28.21c-1.47,0-2.28-.49-2.28-2.32V64.77h4.14V60.28h-4.14V54.92h-5.71v5.36ZM228,75.08a3.65,3.65,0,1,0,3.64-3.65A3.64,3.64,0,0,0,228,75.08m-14,3.79c7.26,0,11.22-4.35,12-9.89h-6a5.74,5.74,0,0,1-5.86,4.59c-4.52,0-6.87-3.61-6.87-7.78S209.66,58,214.18,58A5.74,5.74,0,0,1,220,62.6h6c-.77-5.54-4.73-9.89-12-9.89-8.1,0-12.8,6.17-12.8,13.08s4.7,13.08,12.8,13.08m-19.67-.46h6.94l-8.17-12.69,8.1-12.55h-6.8l-5,8.31-5.09-8.31h-6.9l8.13,12.55-8.2,12.69h6.76L189.29,70ZM164.25,58.29a7.5,7.5,0,0,1,0,15H161.2v-15Zm-9,20.12h9.25c8.42,0,13.12-6.17,13.12-12.62s-4.74-12.62-13.12-12.62h-9.25Z"/></svg>