<svg id="Layer_1" data-name="Layer 1" xmlns="http://www.w3.org/2000/svg" viewBox="0 0 297.84 295.03"><defs><style>.cls-1{fill:#fff;}</style></defs><title>DXC_Logo_header</title><path class="cls-1" d="M235.15,232.52l5.45-13.67h-3.88L234,226.2l-3-7.37h-4.11l5.13,12-.3.73c-.49,1.18-1.09,1.55-2,1.55a8.71,8.71,0,0,1-1.24-.14v3.17a10.47,10.47,0,0,0,1.64.11c2.84,0,4.08-1.2,5.08-3.72M219,227.84a3,3,0,0,1,0-6.08,3,3,0,0,1,0,6.08m6.68,3.16V218.83h-3.72v1.75a4.33,4.33,0,0,0-3.77-2.05c-3.48,0-5.79,2.7-5.79,6.28a5.71,5.71,0,0,0,5.84,6.07,4.34,4.34,0,0,0,3.67-1.84v2.05a2.39,2.39,0,0,1-2.7,2.66c-1.59,0-2.47-.74-2.63-1.83h-3.74c.2,2.66,2.31,4.55,6.28,4.55,4.41,0,6.56-2,6.56-5.47m-21.11-3.16a3,3,0,0,1,0-6.08,3,3,0,0,1,0,6.08m0,3.25c4.16,0,6.63-2.88,6.63-6.28s-2.47-6.3-6.63-6.3a6.3,6.3,0,1,0,0,12.58m-12.19-.32h3.76V213.45h-3.76Zm-8.46-2.93a3,3,0,0,1,0-6.08,3,3,0,0,1,0,6.08m0,3.25c4.16,0,6.63-2.88,6.63-6.28s-2.47-6.3-6.63-6.3a6.3,6.3,0,1,0,0,12.58m-20.32-.32h3.77v-6.24c0-1.68.78-2.77,2.3-2.77s2.13,1,2.13,2.43v6.58h3.76v-6.86c0-3.37-1.47-5.38-4.5-5.38a4,4,0,0,0-3.74,2v-1.73h-3.72Zm-14.34,0H153v-6.24c0-1.68.79-2.77,2.31-2.77s2.13,1,2.13,2.43v6.58h3.76v-6.86c0-3.37-1.48-5.38-4.5-5.38a4,4,0,0,0-3.7,2v-7.11h-3.76Zm-1.69-7.34c-.46-2.78-2.51-4.92-6.12-4.92a6.29,6.29,0,1,0,0,12.58c3.61,0,5.66-2.15,6.12-4.92h-3.78a2.34,2.34,0,0,1-2.31,1.74,3.14,3.14,0,0,1,0-6.22,2.29,2.29,0,0,1,2.28,1.74Zm-20-2.24a2.37,2.37,0,0,1,2.5,2.3H125a2.42,2.42,0,0,1,2.56-2.3m5.89,5.95h-3.58a2.36,2.36,0,0,1-2.26,1.23,2.46,2.46,0,0,1-2.63-2.59h8.68a10.56,10.56,0,0,0,.09-1.41c0-3.16-2.19-5.86-6.14-5.86a6.29,6.29,0,1,0,.05,12.58c3.25,0,5.19-1.73,5.79-4m-21.87-8.31v3h1.87v4.85c0,3.27,1.57,4.31,4.42,4.31a14.15,14.15,0,0,0,2.35-.18v-3a12.69,12.69,0,0,1-1.5.14c-1,0-1.5-.32-1.5-1.52v-4.57h2.72v-3h-2.72V215.3h-3.77v3.53Zm-5.1,9.75a2.4,2.4,0,1,0,2.4-2.41,2.4,2.4,0,0,0-2.4,2.41m-9.21,2.49c4.78,0,7.39-2.86,7.89-6.51h-3.94a3.78,3.78,0,0,1-3.86,3c-3,0-4.53-2.38-4.53-5.12s1.55-5.13,4.53-5.13a3.78,3.78,0,0,1,3.86,3h3.94c-.5-3.64-3.11-6.51-7.89-6.51-5.34,0-8.43,4.07-8.43,8.62s3.09,8.61,8.43,8.61m-13-.3h4.57l-5.38-8.36,5.34-8.27H84.35L81,219.62l-3.34-5.48H73.15l5.35,8.27-5.4,8.36h4.46L81,225.23ZM64.46,217.51a4.95,4.95,0,0,1,0,9.89h-2v-9.89Zm-5.91,13.26h6.1a8.32,8.32,0,1,0,0-16.63h-6.1ZM117.1,121.71a40.6,40.6,0,0,1-40.8,40.8H58.55V80.82H76.3a40.62,40.62,0,0,1,40.8,40.89m60.63,63.16H120.1L149,135ZM120.1,58.55h57.63L149,108.45Zm60.63,63.16a40.62,40.62,0,0,1,40.8-40.89h17.75v81.69H221.53a40.6,40.6,0,0,1-40.8-40.8"/></svg>