<svg width="21" height="32" viewBox="0 0 21 32" fill="none" xmlns="http://www.w3.org/2000/svg">
<path d="M13.453 10.1458H20.8276V29.6034C20.8276 30.3836 20.2466 31.0176 19.5315 31.0176H1.29614C0.581028 31.0176 0 30.3836 0 29.6034V2.09948C0 1.31923 0.581028 0.685272 1.29614 0.685272H12.1569V8.73162C12.1569 9.51188 12.7379 10.1458 13.453 10.1458ZM15.6878 19.6552H12.1569V14.9249C12.1569 14.3885 11.7546 13.9983 11.3077 13.9983H9.56462C9.07298 13.9983 8.71542 14.4372 8.71542 14.9249V19.6552H5.18456C4.42475 19.6552 4.0225 20.6792 4.55884 21.2644L9.78809 26.9213C10.1456 27.3114 10.7267 27.3114 11.0842 26.9213L16.3135 21.2644C16.8498 20.6792 16.4923 19.6552 15.6878 19.6552ZM20.8723 7.90261V8.24397H13.9V0.685272H14.2128C14.5704 0.685272 14.8833 0.831569 15.1514 1.12416L20.4701 6.92729C20.7382 7.17112 20.8723 7.51248 20.8723 7.90261Z" fill="black"/>
</svg>
