<svg width="27" height="20" viewBox="0 0 27 20" fill="none" xmlns="http://www.w3.org/2000/svg">
<path d="M2.45392 20C1.11542 20 0 18.8889 0 17.5556V2.44444C0 1.11111 1.11542 0 2.45392 0H24.3161C25.6546 0 26.77 1.11111 26.77 2.44444V17.5556C26.77 18.8889 25.6546 20 24.3161 20H2.45392ZM2.90009 6C2.90009 7.55556 4.23859 8.88889 5.80017 8.88889C7.36176 8.88889 8.70026 7.55556 8.70026 6C8.70026 4.44445 7.36176 3.11111 5.80017 3.11111C4.23859 3.11111 2.90009 4.22222 2.90009 6ZM23.4238 16.6667V10.8889L18.739 6.22222C18.5159 6 18.0698 6 17.8467 6.22222L10.708 13.3333L7.80792 10.4444C7.58484 10.2222 7.13867 10.2222 6.91559 10.4444L3.12317 14.2222V16.6667H23.4238Z" fill="#666666"/>
</svg>
