<svg width="20" height="27" viewBox="0 0 20 27" fill="none" xmlns="http://www.w3.org/2000/svg">
<path d="M20 8.41185V25.4569C20 26.121 19.3333 26.7851 18.6667 26.7851H1.33333C0.666667 26.7851 0 26.121 0 25.4569V1.32818C0 0.66409 0.666667 0 1.33333 0H11.7778V7.08365C11.7778 7.74774 12.4444 8.41185 13.1111 8.41185H20ZM10.4444 14.3887C10.6667 13.5032 11.1111 11.9537 10.6667 11.0682C10.4444 9.51867 8.44444 9.74004 8.22222 10.6255C8 11.511 8.22222 12.8391 8.66667 14.61C8 15.9382 7.11111 17.9305 6.44444 19.0373C5.11111 19.7014 2.66667 21.251 3.55556 22.5792C3.77778 23.0219 4.44445 23.0219 4.66667 23.0219C5.55556 23.0219 6.44445 22.1364 7.77778 19.9228C9.11111 19.4801 10.6667 19.0373 12 18.816C13.1111 19.4801 14.4444 19.9228 15.3333 19.9228C16.8889 19.9228 16.8889 18.1519 16.4444 17.7091C15.7778 17.0451 13.5556 17.2664 12.6667 17.2664C11.5556 16.6023 10.8889 15.7169 10.4444 14.3887ZM6.44444 20.1441C5.33333 21.9151 4.66667 22.3578 4.66667 22.1364C4.88889 21.4723 6 20.3655 6.44444 20.1441ZM11.3333 17.9305C10 18.1519 9.11111 18.5946 8 19.0373C8.66667 17.9305 9.11111 16.8237 9.55556 15.7169C10 16.6023 10.6667 17.2664 11.3333 17.9305ZM9.55556 10.8469C10 10.8469 10 12.8391 9.55556 13.2819C9.33333 12.3964 9.33333 10.8469 9.55556 10.8469ZM20 6.41957V6.64093H13.3333V0H13.7778C14.2222 0 14.4444 0.221366 14.6667 0.44273L19.7778 5.53411C20 5.75547 20 5.97684 20 6.41957ZM13.5556 18.1519C15.5556 17.9305 16 18.3732 15.7778 18.5946C15.7778 18.5946 15.5556 19.0373 13.5556 18.1519Z" fill="#666666"/>
</svg>
