<svg width="20" height="27" viewBox="0 0 20 27" fill="none" xmlns="http://www.w3.org/2000/svg">
<path d="M12.967 8.3194H20V25.1771C20 25.8339 19.3407 26.4907 18.6813 26.4907H1.31868C0.659341 26.4907 0 25.8339 0 25.1771V1.31359C0 0.656795 0.659341 0 1.31868 0H11.6484V7.00581C11.6484 7.66261 12.0879 8.3194 12.967 8.3194ZM10.5495 11.6034H6.37363C5.93407 11.6034 5.71429 11.8223 5.71429 12.2602V22.55C5.71429 22.9878 5.93407 23.2068 6.37363 23.2068H7.91209C8.35165 23.2068 8.57143 22.9878 8.57143 22.55V19.4849C9.67033 19.4849 14.2857 20.1417 14.2857 15.5441C14.2857 13.1359 12.967 11.6034 10.5495 11.6034ZM11.2088 14.2306C11.6484 14.8874 11.6484 15.982 11.2088 16.4199C10.7692 16.8577 10.5495 17.0767 10.1099 17.0767H8.57143V14.0116H10.1099C10.5495 14.0116 10.7692 14.0116 11.2088 14.2306ZM19.7802 6.34902V6.56795H13.1868V0H13.6264C14.0659 0 14.2857 0.218932 14.5055 0.437863L19.5604 5.47329C19.7802 5.69222 19.7802 5.91116 19.7802 6.34902Z" fill="#666666"/>
</svg>
