<svg width="20" height="27" viewBox="0 0 20 27" fill="none" xmlns="http://www.w3.org/2000/svg">
<path d="M12.967 8.3194H20V25.1771C20 25.8339 19.3407 26.4907 18.6813 26.4907H1.31868C0.659341 26.4907 0 25.8339 0 25.1771V1.31359C0 0.656792 0.659341 0 1.31868 0H11.6484V7.00582C11.6484 7.66261 12.0879 8.3194 12.967 8.3194ZM14.0659 13.5738C12.7473 19.266 12.967 19.7039 12.967 20.1417C12.967 19.9228 12.7473 18.6092 11.4286 13.5738C11.4286 13.3548 11.2088 13.1359 10.7692 13.1359H9.23077C9.01099 13.1359 8.79121 13.3548 8.57143 13.5738C7.47253 18.1713 7.03297 19.266 7.03297 19.9228C7.03297 19.266 6.81319 17.7335 5.93407 13.5738C5.93407 13.3548 5.71429 13.1359 5.27473 13.1359H4.17582C3.73626 13.1359 3.51648 13.5738 3.51648 13.7927L5.49451 22.331C5.49451 22.55 5.71429 22.7689 6.15385 22.7689H8.13187C8.35165 22.7689 8.57143 22.55 8.79121 22.331C9.89011 17.5145 10.1099 17.2956 10.1099 16.6388C10.3297 18.1713 10.1099 17.0767 11.4286 22.331C11.4286 22.55 11.6484 22.7689 12.0879 22.7689H14.0659C14.2857 22.7689 14.5055 22.55 14.7253 22.331L16.7033 13.7927C16.4835 13.5738 16.2637 13.1359 15.8242 13.1359H14.5055C14.2857 13.1359 14.0659 13.3548 14.0659 13.5738ZM19.7802 6.56795H13.1868V0H13.6264C14.0659 0 14.2857 0.218933 14.5055 0.437865L19.5604 5.47329C19.7802 5.69222 20 5.91116 20 6.34902V6.56795H19.7802Z" fill="#666666"/>
</svg>
