<svg width="20" height="27" viewBox="0 0 20 27" fill="none" xmlns="http://www.w3.org/2000/svg">
<path d="M12.967 8.3194H20V25.1771C20 25.8339 19.3407 26.4907 18.6813 26.4907H1.31868C0.659341 26.4907 0 25.8339 0 25.1771V1.31359C0 0.656796 0.659341 0 1.31868 0H11.6484V7.00582C11.6484 7.66261 12.0879 8.3194 12.967 8.3194ZM14.2857 11.6034H12.5275C12.3077 11.6034 12.0879 11.8223 12.0879 11.8223C10.3297 14.6684 9.89011 15.3252 9.89011 15.3252C9.01099 13.5738 9.45055 14.2306 7.91209 11.8223C7.91209 11.6034 7.69231 11.6034 7.47253 11.6034H5.71429C5.27473 11.6034 4.83516 12.0412 5.27473 12.4791L8.35165 17.2956L5.27473 22.1121C5.05494 22.55 5.27473 22.9878 5.71429 22.9878H7.47253C7.69231 22.9878 7.91209 22.7689 7.91209 22.7689C9.23077 20.3606 9.45055 19.9228 9.89011 19.266C9.89011 19.266 10.7692 21.0174 11.8681 22.7689C11.8681 22.9878 12.0879 22.9878 12.3077 22.9878H14.0659C14.5055 22.9878 14.9451 22.55 14.5055 22.1121L11.4286 17.2956L14.5055 12.4791C14.9451 12.0412 14.7253 11.3844 14.2857 11.6034ZM19.7802 6.56795H13.1868V0H13.6264C14.0659 0 14.2857 0.218933 14.5055 0.437865L19.5604 5.47329C19.7802 5.69222 20 5.91115 20 6.34902V6.56795H19.7802Z" fill="#666666"/>
</svg>
